<svg xmlns="http://www.w3.org/2000/svg" xmlns:xlink="http://www.w3.org/1999/xlink" width="1920" zoomAndPan="magnify" viewBox="0 0 1440 809.999993" height="1080" preserveAspectRatio="xMidYMid meet" version="1.2"><defs><clipPath id="e7b0fb89ed"><path d="M 42.792969 138.957031 L 482 138.957031 L 482 670.707031 L 42.792969 670.707031 Z M 42.792969 138.957031 "/></clipPath></defs><g id="2ec8feceda"><g clip-rule="nonzero" clip-path="url(#e7b0fb89ed)"><path style=" stroke:none;fill-rule:nonzero;fill:#00c951;fill-opacity:1;" d="M 422.105469 357.078125 C 422.105469 454.175781 334.152344 532.980469 225.675781 532.980469 C 175.371094 532.980469 127.410156 517.03125 87.632812 486.402344 C 76.574219 477.785156 66.257812 468.320312 57.644531 457.6875 C 68.492188 494.269531 84.976562 529.683594 107.203125 561.058594 C 142.085938 610.617188 190.582031 650.394531 250.882812 670.707031 L 250.882812 589.242188 C 250.882812 582.964844 255.984375 577.863281 262.261719 577.863281 C 322.878906 577.863281 377.863281 553.1875 417.636719 513.414062 C 457.199219 473.640625 481.765625 418.976562 481.765625 358.355469 C 481.765625 297.734375 457.09375 242.859375 417.53125 203.085938 C 377.757812 163.628906 322.878906 138.957031 262.261719 138.957031 C 201.640625 138.957031 146.976562 163.628906 107.203125 203.085938 C 67.425781 242.859375 42.753906 297.84375 42.753906 358.460938 C 42.753906 362.820312 43.074219 367.394531 43.074219 371.96875 C 47.433594 409.828125 69.554688 443.648438 101.777344 468.320312 C 105.605469 471.300781 109.648438 473.957031 113.691406 476.722656 L 113.691406 336.765625 C 113.691406 299.117188 131.023438 265.085938 158.570312 240.414062 C 185.902344 216.058594 223.550781 200.851562 265.238281 200.851562 C 296.078125 200.851562 325.328125 209.253906 349.894531 224.140625 C 374.566406 239.242188 394.242188 260.726562 405.941406 286.886719 C 411.042969 297.734375 415.191406 309.328125 417.851562 320.707031 C 420.828125 332.726562 422.105469 344.847656 422.105469 357.078125 Z M 422.105469 357.078125 "/></g><path style=" stroke:none;fill-rule:nonzero;fill:#00c951;fill-opacity:1;" d="M 225.675781 510.011719 C 321.496094 510.011719 399.132812 441.519531 399.132812 357.078125 C 399.132812 346.550781 397.75 336.234375 395.625 326.238281 C 393.175781 315.921875 389.667969 305.925781 385.09375 296.460938 L 384.777344 296.140625 C 375.3125 274.445312 358.507812 256.367188 337.980469 243.921875 C 317.136719 231.160156 291.71875 223.929688 265.238281 223.929688 C 229.503906 223.929688 197.066406 236.902344 173.777344 257.535156 C 151.019531 277.742188 136.660156 305.925781 136.660156 336.765625 L 136.660156 489.699219 C 163.675781 502.351562 194.515625 510.011719 225.675781 510.011719 Z M 222.484375 392.28125 C 218.445312 393.875 214.085938 394.941406 209.511719 394.941406 C 190.261719 394.941406 174.839844 379.199219 174.839844 360.269531 C 174.839844 341.019531 190.261719 325.601562 209.511719 325.601562 C 228.441406 325.601562 244.179688 341.019531 244.179688 360.269531 C 244.179688 367.609375 241.734375 374.308594 237.90625 380.050781 C 237.375 374.09375 232.269531 369.523438 226.316406 369.523438 C 219.828125 369.523438 214.402344 374.628906 214.402344 381.113281 C 214.296875 386.324219 217.804688 390.898438 222.484375 392.28125 Z M 315.222656 394.941406 C 295.972656 394.941406 280.554688 379.199219 280.554688 360.269531 C 280.554688 341.019531 295.972656 325.601562 315.222656 325.601562 C 334.472656 325.601562 349.894531 341.019531 349.894531 360.269531 C 349.894531 367.609375 347.765625 374.308594 343.617188 380.050781 C 343.085938 374.09375 337.980469 369.523438 332.027344 369.523438 C 325.539062 369.523438 320.433594 374.628906 320.433594 381.113281 C 320.433594 386.21875 323.730469 390.898438 328.515625 392.175781 C 324.476562 393.875 319.902344 394.941406 315.222656 394.941406 Z M 315.222656 394.941406 "/><g style="fill:#00c951;fill-opacity:1;"><g transform="translate(505.852493, 482.277231)"><path style="stroke:none" d="M 34.359375 -143.03125 C 27.398438 -143.03125 21.710938 -145.078125 17.296875 -149.171875 C 12.890625 -153.273438 10.6875 -158.347656 10.6875 -164.390625 C 10.6875 -170.578125 12.890625 -175.722656 17.296875 -179.828125 C 21.710938 -183.929688 27.398438 -185.984375 34.359375 -185.984375 C 41.171875 -185.984375 46.78125 -183.929688 51.1875 -179.828125 C 55.601562 -175.722656 57.8125 -170.578125 57.8125 -164.390625 C 57.8125 -158.347656 55.601562 -153.273438 51.1875 -149.171875 C 46.78125 -145.078125 41.171875 -143.03125 34.359375 -143.03125 Z M 54.09375 -129.5625 L 54.09375 0 L 14.390625 0 L 14.390625 -129.5625 Z M 54.09375 -129.5625 "/></g></g><g style="fill:#00c951;fill-opacity:1;"><g transform="translate(574.342385, 482.277231)"><path style="stroke:none" d="M 122.59375 -111.453125 C 119.65625 -116.867188 115.4375 -121.007812 109.9375 -123.875 C 104.445312 -126.738281 97.984375 -128.171875 90.546875 -128.171875 C 77.703125 -128.171875 67.410156 -123.953125 59.671875 -115.515625 C 51.929688 -107.078125 48.0625 -95.816406 48.0625 -81.734375 C 48.0625 -66.710938 52.125 -54.984375 60.25 -46.546875 C 68.375 -38.117188 79.554688 -33.90625 93.796875 -33.90625 C 103.554688 -33.90625 111.800781 -36.378906 118.53125 -41.328125 C 125.257812 -46.285156 130.175781 -53.40625 133.28125 -62.6875 L 82.890625 -62.6875 L 82.890625 -91.953125 L 169.265625 -91.953125 L 169.265625 -55.03125 C 166.328125 -45.125 161.332031 -35.910156 154.28125 -27.390625 C 147.238281 -18.878906 138.300781 -11.992188 127.46875 -6.734375 C 116.632812 -1.472656 104.40625 1.15625 90.78125 1.15625 C 74.6875 1.15625 60.332031 -2.363281 47.71875 -9.40625 C 35.101562 -16.445312 25.269531 -26.234375 18.21875 -38.765625 C 11.175781 -51.304688 7.65625 -65.628906 7.65625 -81.734375 C 7.65625 -97.828125 11.175781 -112.179688 18.21875 -124.796875 C 25.269531 -137.410156 35.0625 -147.238281 47.59375 -154.28125 C 60.132812 -161.332031 74.453125 -164.859375 90.546875 -164.859375 C 110.054688 -164.859375 126.503906 -160.132812 139.890625 -150.6875 C 153.285156 -141.25 162.148438 -128.171875 166.484375 -111.453125 Z M 122.59375 -111.453125 "/></g></g><g style="fill:#00c951;fill-opacity:1;"><g transform="translate(751.255207, 482.277231)"><path style="stroke:none" d="M 136.53125 -66.875 C 136.53125 -63.15625 136.296875 -59.285156 135.828125 -55.265625 L 45.96875 -55.265625 C 46.59375 -47.210938 49.1875 -41.054688 53.75 -36.796875 C 58.3125 -32.546875 63.921875 -30.421875 70.578125 -30.421875 C 80.484375 -30.421875 87.375 -34.597656 91.25 -42.953125 L 133.515625 -42.953125 C 131.335938 -34.441406 127.425781 -26.78125 121.78125 -19.96875 C 116.132812 -13.15625 109.050781 -7.8125 100.53125 -3.9375 C 92.019531 -0.0703125 82.503906 1.859375 71.984375 1.859375 C 59.285156 1.859375 47.984375 -0.847656 38.078125 -6.265625 C 28.171875 -11.679688 20.429688 -19.421875 14.859375 -29.484375 C 9.285156 -39.546875 6.5 -51.3125 6.5 -64.78125 C 6.5 -78.25 9.242188 -90.015625 14.734375 -100.078125 C 20.234375 -110.140625 27.9375 -117.878906 37.84375 -123.296875 C 47.75 -128.710938 59.128906 -131.421875 71.984375 -131.421875 C 84.515625 -131.421875 95.65625 -128.785156 105.40625 -123.515625 C 115.164062 -118.253906 122.789062 -110.75 128.28125 -101 C 133.78125 -91.25 136.53125 -79.875 136.53125 -66.875 Z M 95.890625 -77.3125 C 95.890625 -84.125 93.566406 -89.539062 88.921875 -93.5625 C 84.285156 -97.59375 78.484375 -99.609375 71.515625 -99.609375 C 64.859375 -99.609375 59.242188 -97.671875 54.671875 -93.796875 C 50.109375 -89.929688 47.285156 -84.4375 46.203125 -77.3125 Z M 95.890625 -77.3125 "/></g></g><g style="fill:#00c951;fill-opacity:1;"><g transform="translate(894.271348, 482.277231)"><path style="stroke:none" d="M 93.34375 -130.953125 C 108.507812 -130.953125 120.617188 -126.035156 129.671875 -116.203125 C 138.734375 -106.378906 143.265625 -92.875 143.265625 -75.6875 L 143.265625 0 L 103.78125 0 L 103.78125 -70.359375 C 103.78125 -79.023438 101.535156 -85.753906 97.046875 -90.546875 C 92.566406 -95.347656 86.53125 -97.75 78.9375 -97.75 C 71.351562 -97.75 65.316406 -95.347656 60.828125 -90.546875 C 56.335938 -85.753906 54.09375 -79.023438 54.09375 -70.359375 L 54.09375 0 L 14.390625 0 L 14.390625 -129.5625 L 54.09375 -129.5625 L 54.09375 -112.375 C 58.125 -118.101562 63.539062 -122.628906 70.34375 -125.953125 C 77.15625 -129.285156 84.820312 -130.953125 93.34375 -130.953125 Z M 93.34375 -130.953125 "/></g></g><g style="fill:#00c951;fill-opacity:1;"><g transform="translate(1050.753254, 482.277231)"><path style="stroke:none" d="M 6.5 -65.015625 C 6.5 -78.328125 9.015625 -90.015625 14.046875 -100.078125 C 19.078125 -110.140625 25.925781 -117.878906 34.59375 -123.296875 C 43.257812 -128.710938 52.9375 -131.421875 63.625 -131.421875 C 72.132812 -131.421875 79.910156 -129.640625 86.953125 -126.078125 C 93.992188 -122.515625 99.53125 -117.71875 103.5625 -111.6875 L 103.5625 -171.8125 L 143.265625 -171.8125 L 143.265625 0 L 103.5625 0 L 103.5625 -18.578125 C 99.84375 -12.378906 94.535156 -7.421875 87.640625 -3.703125 C 80.753906 0.00390625 72.75 1.859375 63.625 1.859375 C 52.9375 1.859375 43.257812 -0.882812 34.59375 -6.375 C 25.925781 -11.875 19.078125 -19.691406 14.046875 -29.828125 C 9.015625 -39.972656 6.5 -51.703125 6.5 -65.015625 Z M 103.5625 -64.78125 C 103.5625 -74.6875 100.8125 -82.503906 95.3125 -88.234375 C 89.820312 -93.960938 83.128906 -96.828125 75.234375 -96.828125 C 67.335938 -96.828125 60.640625 -94 55.140625 -88.34375 C 49.648438 -82.695312 46.90625 -74.921875 46.90625 -65.015625 C 46.90625 -55.109375 49.648438 -47.25 55.140625 -41.4375 C 60.640625 -35.632812 67.335938 -32.734375 75.234375 -32.734375 C 83.128906 -32.734375 89.820312 -35.597656 95.3125 -41.328125 C 100.8125 -47.054688 103.5625 -54.875 103.5625 -64.78125 Z M 103.5625 -64.78125 "/></g></g><g style="fill:#00c951;fill-opacity:1;"><g transform="translate(1208.396056, 482.277231)"><path style="stroke:none" d="M 6.5 -65.015625 C 6.5 -78.328125 9.015625 -90.015625 14.046875 -100.078125 C 19.078125 -110.140625 25.925781 -117.878906 34.59375 -123.296875 C 43.257812 -128.710938 52.9375 -131.421875 63.625 -131.421875 C 72.75 -131.421875 80.753906 -129.5625 87.640625 -125.84375 C 94.535156 -122.125 99.84375 -117.25 103.5625 -111.21875 L 103.5625 -129.5625 L 143.265625 -129.5625 L 143.265625 0 L 103.5625 0 L 103.5625 -18.34375 C 99.6875 -12.300781 94.304688 -7.421875 87.421875 -3.703125 C 80.535156 0.00390625 72.523438 1.859375 63.390625 1.859375 C 52.859375 1.859375 43.257812 -0.882812 34.59375 -6.375 C 25.925781 -11.875 19.078125 -19.691406 14.046875 -29.828125 C 9.015625 -39.972656 6.5 -51.703125 6.5 -65.015625 Z M 103.5625 -64.78125 C 103.5625 -74.6875 100.8125 -82.503906 95.3125 -88.234375 C 89.820312 -93.960938 83.128906 -96.828125 75.234375 -96.828125 C 67.335938 -96.828125 60.640625 -94 55.140625 -88.34375 C 49.648438 -82.695312 46.90625 -74.921875 46.90625 -65.015625 C 46.90625 -55.109375 49.648438 -47.25 55.140625 -41.4375 C 60.640625 -35.632812 67.335938 -32.734375 75.234375 -32.734375 C 83.128906 -32.734375 89.820312 -35.597656 95.3125 -41.328125 C 100.8125 -47.054688 103.5625 -54.875 103.5625 -64.78125 Z M 103.5625 -64.78125 "/></g></g></g></svg>